<?xml version="1.0" encoding="UTF-8"?>
<svg id="Layer_2" data-name="Layer 2" xmlns="http://www.w3.org/2000/svg" viewBox="0 0 393.96 365.58">
  <defs>
    <style>
      .cls-1, .cls-2, .cls-3 {
        fill: #fff;
      }

      .cls-4 {
        letter-spacing: .15em;
      }

      .cls-2 {
        font-family: AcuminConcept-Bold, 'Acumin Variable Concept';
        font-size: 47.55px;
        font-variation-settings: 'wght' 700, 'wdth' 100, 'slnt' 0;
      }

      .cls-2, .cls-5 {
        font-weight: 700;
      }

      .cls-3 {
        font-family: AcuminConcept-CondensedSemibold, 'Acumin Variable Concept';
        font-size: 27.74px;
        font-variation-settings: 'wght' 600, 'wdth' 67, 'slnt' 0;
        font-weight: 600;
      }

      .cls-6 {
        letter-spacing: 0em;
      }

      .cls-7 {
        letter-spacing: 0em;
      }

      .cls-8 {
        letter-spacing: .15em;
      }

      .cls-9 {
        letter-spacing: .15em;
      }

      .cls-10 {
        letter-spacing: -.01em;
      }

      .cls-11 {
        fill: #3cc7ed;
      }

      .cls-12 {
        letter-spacing: .15em;
      }

      .cls-13 {
        letter-spacing: 0em;
      }

      .cls-5 {
        font-family: AcuminConcept-ExtraCondensedBold, 'Acumin Variable Concept';
        font-size: 73.17px;
        font-variation-settings: 'wght' 700, 'wdth' 50, 'slnt' 0;
      }

      .cls-14 {
        letter-spacing: .16em;
      }

      .cls-15 {
        letter-spacing: -.02em;
      }
    </style>
  </defs>
  <g id="Layer_1-2" data-name="Layer 1">
    <g>
      <g>
        <g>
          <path class="cls-11" d="M122.14,47.34c0,.7-.58,1.28-1.28,1.28h-15.28c-.03-.2-.05-.41-.05-.63-.02-.22-.02-.44-.02-.65s0-.43,.02-.65c0-.22,.02-.43,.05-.63h15.28c.7,0,1.28,.58,1.28,1.28Z"/>
          <path class="cls-11" d="M321.72,28.57v111.78c0,.72-.58,1.28-1.28,1.28s-1.28-.56-1.28-1.28V28.57c0-14.35-11.67-26.01-26.01-26.01H102.09c-14.35,0-26.01,11.67-26.01,26.01v17.48h22.65c-.03,.43-.05,.85-.05,1.28s.02,.85,.05,1.28h-23.93c-.7,0-1.28-.58-1.28-1.28V28.57c0-15.76,12.81-28.57,28.57-28.57h191.05c15.76,0,28.57,12.81,28.57,28.57Z"/>
          <path class="cls-11" d="M293.15,248.2H102.09c-15.75,0-28.57-12.82-28.57-28.57V80.66c0-.71,.57-1.28,1.28-1.28s1.28,.57,1.28,1.28V219.63c0,14.34,11.67,26.01,26.01,26.01h191.05c14.34,0,26.01-11.67,26.01-26.01v-66.05h-14.07c-.71,0-1.28-.57-1.28-1.28s.57-1.28,1.28-1.28h15.35c.71,0,1.28,.57,1.28,1.28v67.33c0,15.76-12.82,28.57-28.57,28.57Z"/>
          <path class="cls-11" d="M91.43,47.34V126.81c-.41-.07-.84-.1-1.28-.1s-.87,.03-1.28,.1V47.34c0-.7,.58-1.28,1.28-1.28s1.28,.58,1.28,1.28Z"/>
          <path class="cls-11" d="M90.15,130.12c.44,0,.87,.05,1.28,.17v5.83c0,.72-.58,1.28-1.28,1.28s-1.28-.56-1.28-1.28v-5.83c.41-.12,.84-.17,1.28-.17Z"/>
          <path class="cls-11" d="M126.3,232.85h-24.21c-7.29,0-13.22-5.93-13.22-13.22v-67.25c0-.71,.57-1.28,1.28-1.28h15.35c.71,0,1.28,.57,1.28,1.28s-.57,1.28-1.28,1.28h-14.07v65.97c0,5.88,4.78,10.66,10.66,10.66h22.93v-14.07c0-.71,.57-1.28,1.28-1.28s1.28,.57,1.28,1.28v15.35c0,.71-.57,1.28-1.28,1.28Z"/>
          <path class="cls-11" d="M306.37,179.64v9.89c-.12,.03-.24,.05-.38,.09-.02,0-.05,.02-.07,.02-.1,.02-.2,.03-.31,.03-.17,.03-.34,.03-.53,.03s-.36,0-.53-.03c-.1,0-.2-.02-.31-.03-.02,0-.05-.02-.07-.02-.14-.03-.26-.05-.38-.09v-9.89c.12-.03,.24-.05,.38-.09,.02,0,.05-.02,.07-.02,.1-.02,.2-.03,.31-.03,.17-.03,.34-.03,.53-.03s.36,0,.53,.03c.1,0,.2,.02,.31,.03,.02,0,.05,.02,.07,.02,.14,.03,.26,.05,.38,.09Z"/>
          <path class="cls-11" d="M184.04,230.29c-.05,.41-.07,.85-.07,1.28s.02,.87,.07,1.28h-42.39c-.7,0-1.28-.58-1.28-1.28s.58-1.28,1.28-1.28h42.39Z"/>
          <path class="cls-11" d="M207.86,231.57c0,.31-.02,.6-.05,.9,0,.12-.02,.24-.03,.34v.03h-20.3v-.03c-.02-.1-.03-.24-.03-.34-.03-.31-.05-.6-.05-.9s.02-.6,.05-.9c0-.1,.02-.24,.03-.34v-.03h20.3v.03c.02,.1,.03,.22,.03,.34,.03,.31,.05,.6,.05,.9Z"/>
          <path class="cls-11" d="M236.58,230.29c-.12,.41-.17,.84-.17,1.28s.05,.87,.17,1.28h-25.38c.05-.41,.07-.85,.07-1.28s-.02-.87-.07-1.28h25.38Z"/>
          <path class="cls-11" d="M244.87,230.9c.05,.22,.07,.44,.07,.67s-.02,.44-.07,.67v.02c-.02,.1-.05,.22-.09,.32-.03,.09-.07,.19-.1,.27h-6.31c-.03-.09-.07-.19-.1-.27-.03-.1-.07-.22-.09-.32v-.02c-.05-.22-.07-.44-.07-.67s.02-.44,.07-.67v-.02c.02-.1,.05-.22,.09-.32,.03-.09,.07-.19,.1-.27h6.31c.03,.09,.07,.19,.1,.27,.03,.1,.07,.22,.09,.32v.02Z"/>
          <path class="cls-11" d="M306.37,193.02v26.61c0,7.28-5.94,13.22-13.22,13.22h-46.67c.12-.41,.17-.84,.17-1.28s-.05-.87-.17-1.28h46.67c5.89,0,10.66-4.78,10.66-10.66v-26.61c.41,.07,.84,.1,1.28,.1s.87-.03,1.28-.1Z"/>
          <path class="cls-11" d="M321.72,80.65c0,.72-.58,1.28-1.28,1.28h-14.07v94.23c-.41-.07-.84-.1-1.28-.1s-.87,.03-1.28,.1V80.65c0-.7,.58-1.28,1.28-1.28h15.35c.7,0,1.28,.58,1.28,1.28Z"/>
          <path class="cls-11" d="M149.47,15.35c-.07,.41-.1,.84-.1,1.28s.03,.87,.1,1.28h-47.37c-5.89,0-10.66,4.78-10.66,10.66v10.24c0,.7-.58,1.28-1.28,1.28s-1.28-.58-1.28-1.28v-10.24c0-7.28,5.94-13.22,13.22-13.22h47.37Z"/>
          <path class="cls-11" d="M162.98,16.1c.03,.17,.03,.34,.03,.53s0,.36-.03,.53c0,.14-.02,.27-.05,.41-.02,.12-.03,.24-.07,.34h-9.91c-.03-.12-.07-.26-.09-.38-.02-.02-.02-.05-.02-.07-.02-.1-.03-.2-.03-.31-.03-.17-.03-.34-.03-.53s0-.36,.03-.53c0-.1,.02-.2,.03-.31,0-.02,0-.05,.02-.07,.02-.12,.05-.26,.09-.38h9.91c.03,.1,.05,.22,.07,.34,.03,.14,.05,.27,.05,.41Z"/>
          <path class="cls-11" d="M306.37,28.57v40.09c0,.7-.58,1.28-1.28,1.28s-1.28-.58-1.28-1.28V28.57c0-5.89-4.78-10.66-10.66-10.66h-126.83c.07-.41,.1-.84,.1-1.28s-.03-.87-.1-1.28h126.83c7.28,0,13.22,5.94,13.22,13.22Z"/>
          <path class="cls-11" d="M105.51,173.92c-.71,0-1.28-.57-1.28-1.28V85.3c0-.71,.57-1.28,1.28-1.28s1.28,.57,1.28,1.28v87.34c0,.71-.57,1.28-1.28,1.28Z"/>
          <path class="cls-11" d="M105.51,202.57c-.43,0-.87,.02-1.28,.07v-16.34c0-.72,.58-1.28,1.28-1.28s1.28,.56,1.28,1.28v16.34c-.41-.05-.85-.07-1.28-.07Z"/>
          <path class="cls-11" d="M104.65,217.07v.09s-.07-.05-.09-.09h.09Z"/>
          <path class="cls-11" d="M115.74,216.21c0,.31-.02,.6-.05,.9,0,.12-.02,.24-.03,.34v.03h-9.3v-.43h5.12c.48,0,.85-.38,.85-.85s-.38-.85-.85-.85h-5.12v-5.12c0-.48-.38-.85-.85-.85s-.85,.38-.85,.85v5.12h-.43v-9.3h.03c.1-.02,.22-.03,.34-.03,.31-.03,.6-.05,.9-.05s.6,.02,.9,.05c.1,0,.24,.02,.34,.03h.03v8.87h8.87v.03c.02,.1,.03,.22,.03,.34,.03,.31,.05,.6,.05,.9Z"/>
          <path class="cls-11" d="M250.11,200.86v15.35c0,.7-.56,1.28-1.28,1.28H119.08c.05-.41,.07-.85,.07-1.28s-.02-.87-.07-1.28H247.55v-14.07c0-.7,.58-1.28,1.28-1.28s1.28,.58,1.28,1.28Z"/>
          <path class="cls-11" d="M291.02,74.53V202.64c-.41-.05-.85-.07-1.28-.07s-.87,.02-1.28,.07V74.53c0-.72,.58-1.28,1.28-1.28s1.28,.56,1.28,1.28Z"/>
          <path class="cls-11" d="M276.16,214.94c-.05,.41-.07,.85-.07,1.28s.02,.87,.07,1.28h-14.57c-.7,0-1.28-.58-1.28-1.28s.58-1.28,1.28-1.28h14.57Z"/>
          <path class="cls-11" d="M291.02,206.06v10.15c0,.7-.58,1.28-1.28,1.28h-10.15v-.03c-.02-.1-.03-.24-.03-.34-.03-.31-.05-.6-.05-.9s.02-.6,.05-.9c0-.1,.02-.24,.03-.34v-.03h8.87v-8.87h.03c.1-.02,.22-.03,.34-.03,.31-.03,.6-.05,.9-.05s.6,.02,.9,.05c.1,0,.24,.02,.34,.03h.03Z"/>
          <path class="cls-11" d="M248.8,33.26h-48.4c-.71,0-1.28-.57-1.28-1.28v-15.35c0-.71,.57-1.28,1.28-1.28s1.28,.57,1.28,1.28v14.07h47.12c.71,0,1.28,.57,1.28,1.28s-.57,1.28-1.28,1.28Z"/>
          <path class="cls-11" d="M274.38,150.89c-.71,0-1.28-.57-1.28-1.28v-61.34c0-.71,.57-1.28,1.28-1.28h15.35c.71,0,1.28,.57,1.28,1.28s-.57,1.28-1.28,1.28h-14.07v60.06c0,.71-.57,1.28-1.28,1.28Z"/>
          <path class="cls-11" d="M120.21,62.67c-.2-.02-.41-.02-.63-.05v-15.28c0-.7,.58-1.28,1.28-1.28h15.28c.03,.2,.05,.41,.05,.63,.02,.22,.02,.44,.02,.65s0,.43-.02,.65c-.02,.2-.02,.41-.05,.63h-14v14c-.22,.03-.43,.03-.63,.05-.22,.02-.44,.02-.65,.02s-.43,0-.65-.02Z"/>
          <path class="cls-11" d="M252.26,46.06c-.03,.43-.05,.85-.05,1.28s.02,.85,.05,1.28h-109.28c.03-.43,.05-.85,.05-1.28s-.02-.85-.05-1.28h109.28Z"/>
          <path class="cls-11" d="M265.43,48.62h-6.33c-.03-.2-.05-.41-.05-.63-.02-.22-.02-.44-.02-.65s0-.43,.02-.65c0-.22,.02-.43,.05-.63h6.33c-.7,0-1.28,.58-1.28,1.28s.58,1.28,1.28,1.28Z"/>
          <path class="cls-11" d="M275.66,163.69v37.17c0,.7-.58,1.28-1.28,1.28H120.86c-.7,0-1.28-.58-1.28-1.28V69.46c.43,.03,.85,.05,1.28,.05s.85-.02,1.28-.05V199.58h150.97v-35.89c0-.7,.58-1.28,1.28-1.28s1.28,.58,1.28,1.28Z"/>
          <path class="cls-11" d="M159.17,17.21v4.37c-.12,.03-.24,.05-.38,.09-.02,0-.05,.02-.07,.02-.1,.02-.2,.03-.31,.03-.17,.03-.34,.03-.53,.03s-.36,0-.53-.03c-.12,0-.22-.02-.32-.05-.1-.02-.2-.02-.29-.05-.03,0-.07,0-.1-.02t-.03-.02v-4.37c0-.7,.58-1.28,1.28-1.28s1.28,.58,1.28,1.28Z"/>
          <path class="cls-11" d="M157.89,25.16c.44,0,.87-.03,1.28-.1v22.28c0,.7-.56,1.28-1.28,1.28s-1.28-.58-1.28-1.28V25.06c.41,.07,.84,.1,1.28,.1Z"/>
          <path class="cls-1" d="M136.21,47.34c0,.2,0,.43-.02,.65-.02,.2-.02,.41-.05,.63-.02,.22-.03,.46-.07,.7-.03,.22-.07,.44-.1,.68-.15,.9-.39,1.79-.72,2.63-.15,.43-.32,.84-.51,1.25-.02,.03-.03,.09-.05,.12-.09,.17-.17,.32-.26,.48-.07,.17-.17,.32-.26,.48-.31,.55-.65,1.06-1.02,1.57-.14,.17-.27,.36-.43,.53-.03,.05-.09,.12-.14,.17-.27,.34-.58,.67-.89,.97s-.63,.61-.97,.89c-.05,.05-.12,.1-.17,.14-.17,.15-.36,.29-.53,.43-.51,.38-1.02,.72-1.57,1.02-.15,.09-.31,.19-.48,.26-.15,.09-.31,.17-.48,.26-.03,.02-.09,.03-.12,.05-.41,.19-.82,.36-1.25,.51-.84,.32-1.72,.56-2.63,.72-.24,.03-.46,.07-.68,.1-.24,.03-.48,.05-.7,.07-.22,.03-.43,.03-.63,.05-.22,.02-.44,.02-.65,.02s-.43,0-.65-.02c-.2-.02-.41-.02-.63-.05-.22-.02-.46-.03-.7-.07-.22-.03-.44-.07-.68-.1-.9-.15-1.79-.39-2.63-.72-.43-.15-.84-.32-1.25-.51-.03-.02-.09-.03-.12-.05-.17-.09-.32-.17-.48-.26-.17-.07-.32-.17-.48-.26-.55-.31-1.06-.65-1.57-1.02-.17-.14-.36-.27-.53-.43-.05-.03-.12-.09-.17-.14-.34-.27-.67-.58-.97-.89s-.61-.63-.89-.97c-.05-.05-.1-.12-.14-.17-.15-.17-.29-.36-.43-.53-.38-.51-.72-1.02-1.02-1.57-.09-.15-.19-.31-.26-.48-.09-.15-.17-.31-.26-.48-.02-.03-.03-.09-.05-.12-.19-.41-.36-.82-.51-1.25-.32-.84-.56-1.72-.72-2.63-.03-.24-.07-.46-.1-.68-.03-.24-.05-.48-.07-.7-.03-.2-.05-.41-.05-.63-.02-.22-.02-.44-.02-.65s0-.43,.02-.65c0-.22,.02-.43,.05-.63,.02-.24,.05-.49,.07-.73,.07-.48,.15-.97,.26-1.43,.09-.38,.19-.75,.31-1.13,.15-.48,.32-.94,.51-1.4,.09-.24,.19-.46,.31-.68,.22-.48,.48-.94,.75-1.38,.24-.39,.49-.77,.78-1.14v-.02c.14-.19,.29-.38,.46-.56,.14-.17,.29-.34,.43-.51,.19-.2,.38-.39,.56-.58,.36-.36,.72-.7,1.09-.99,.19-.17,.38-.32,.58-.46,.19-.15,.39-.29,.6-.43,.19-.14,.39-.27,.61-.39,.2-.14,.43-.26,.65-.38s.44-.24,.67-.34c.22-.12,.44-.22,.68-.31,.22-.1,.46-.19,.7-.27,.22-.09,.46-.17,.7-.24,.09-.03,.17-.07,.26-.09,.05-.02,.12-.03,.17-.05,.17-.05,.32-.09,.49-.12,.24-.07,.48-.12,.7-.15,.22-.05,.46-.09,.68-.12s.46-.07,.7-.09c.2-.03,.43-.05,.65-.05,.31-.02,.61-.03,.92-.03s.61,.02,.92,.03c.22,0,.44,.02,.65,.05,.24,.02,.48,.05,.7,.09s.46,.07,.68,.12c.22,.03,.46,.09,.7,.15,.17,.03,.32,.07,.49,.12,.05,.02,.12,.03,.17,.05,.09,.02,.17,.05,.26,.09,.24,.07,.48,.15,.7,.24,.24,.09,.48,.17,.7,.27,.24,.09,.46,.19,.68,.31,.22,.1,.44,.22,.67,.34s.44,.24,.65,.38c.22,.12,.43,.26,.61,.39,.2,.14,.41,.27,.6,.43,.2,.14,.39,.29,.58,.46,.38,.29,.73,.63,1.09,.99,.19,.19,.38,.38,.56,.58,.14,.17,.29,.34,.43,.51,.17,.19,.32,.38,.46,.56v.02c.29,.38,.55,.75,.78,1.14,.27,.44,.53,.9,.75,1.38,.12,.22,.22,.44,.31,.68,.19,.46,.36,.92,.51,1.4,.12,.38,.22,.75,.31,1.13,.1,.46,.19,.96,.26,1.43,.02,.24,.05,.49,.07,.73,.03,.2,.05,.41,.05,.63,.02,.22,.02,.44,.02,.65Z"/>
          <path class="cls-11" d="M299.97,216.21c0,5.65-4.59,10.24-10.24,10.24-.24,0-.49-.02-.73-.03-.19,0-.39-.03-.58-.05-.03,0-.07-.02-.1-.02-.2-.02-.41-.05-.61-.1-.27-.05-.55-.12-.82-.2-.17-.03-.32-.1-.48-.15-.19-.05-.36-.12-.55-.19-.26-.12-.51-.22-.75-.36-.17-.09-.36-.19-.53-.29-.36-.2-.72-.44-1.04-.7-.2-.15-.41-.32-.6-.49-.24-.19-.44-.41-.65-.63s-.41-.44-.6-.68c-.19-.24-.38-.49-.55-.75-.02-.03-.05-.09-.07-.12-.09-.14-.17-.27-.26-.43-.07-.14-.15-.29-.22-.43-.17-.34-.32-.68-.46-1.04-.27-.72-.46-1.47-.55-2.23-.02-.02-.02-.03-.02-.05v-.03c-.02-.1-.03-.24-.03-.34-.03-.31-.05-.6-.05-.9s.02-.6,.05-.9c0-.1,.02-.24,.03-.34v-.03c.07-.58,.19-1.14,.36-1.69,.09-.26,.17-.53,.27-.78,.07-.15,.12-.31,.19-.44,0-.02,.02-.03,.02-.05,.03-.05,.05-.1,.07-.15,.03-.09,.07-.15,.12-.22,.1-.19,.2-.39,.32-.58,.17-.31,.36-.6,.58-.89,.03-.05,.07-.1,.1-.14,.02-.03,.05-.05,.07-.09l.02-.02c.07-.1,.15-.19,.24-.29,.36-.43,.75-.82,1.18-1.18,.09-.09,.19-.15,.29-.24l.02-.02s.05-.05,.09-.07c.03-.03,.09-.07,.14-.1,.29-.22,.58-.41,.89-.58,.19-.12,.39-.22,.58-.32,.07-.05,.14-.09,.22-.12,.05-.02,.1-.03,.15-.07,.02,0,.03-.02,.05-.02,.14-.07,.29-.12,.44-.19,.26-.1,.53-.19,.78-.27,.55-.17,1.11-.29,1.69-.36h.03c.1-.02,.22-.03,.34-.03,.31-.03,.6-.05,.9-.05s.6,.02,.9,.05c.1,0,.24,.02,.34,.03h.03s.03,0,.05,.02c.77,.09,1.52,.27,2.23,.55,.36,.14,.7,.29,1.04,.46,.14,.07,.29,.15,.43,.22,.15,.09,.29,.17,.43,.26,.03,.02,.09,.05,.12,.07,.26,.17,.51,.36,.75,.55,.24,.19,.46,.39,.68,.6,.22,.2,.44,.41,.63,.65,.17,.19,.34,.39,.49,.6,.26,.32,.49,.68,.7,1.04,.1,.17,.2,.36,.29,.53,.14,.24,.24,.49,.36,.75,.07,.19,.14,.36,.19,.55,.05,.15,.12,.31,.15,.48,.09,.27,.15,.55,.2,.82,.05,.2,.09,.41,.1,.61,0,.03,.02,.07,.02,.1,.02,.19,.05,.39,.05,.58,.02,.24,.03,.49,.03,.73Z"/>
          <path class="cls-1" d="M207.86,231.57c0,.31-.02,.6-.05,.9,0,.12-.02,.24-.03,.34v.03s0,.03-.02,.05c-.09,.77-.27,1.52-.55,2.23-.14,.36-.29,.7-.46,1.04-.07,.14-.15,.29-.22,.43-.09,.15-.17,.29-.26,.43-.02,.03-.05,.09-.07,.12-.17,.26-.36,.51-.55,.75-.19,.24-.39,.46-.6,.68s-.41,.44-.65,.63c-.19,.17-.39,.34-.6,.49-.32,.26-.68,.49-1.04,.7-.17,.1-.36,.2-.53,.29-.24,.14-.49,.24-.75,.36-.19,.07-.36,.14-.55,.19-.15,.05-.31,.12-.48,.15-.27,.09-.55,.15-.82,.2-.2,.05-.41,.09-.61,.1-.03,0-.07,.02-.1,.02-.19,.02-.39,.05-.58,.05-.24,.02-.49,.03-.73,.03s-.49-.02-.73-.03c-.19,0-.39-.03-.58-.05-.03,0-.07-.02-.1-.02-.2-.02-.41-.05-.61-.1-.27-.05-.55-.12-.82-.2-.17-.03-.32-.1-.48-.15-.19-.05-.36-.12-.55-.19-.26-.12-.51-.22-.75-.36-.17-.09-.36-.19-.53-.29-.36-.2-.72-.44-1.04-.7-.2-.15-.41-.32-.6-.49-.24-.19-.44-.41-.65-.63s-.41-.44-.6-.68c-.19-.24-.38-.49-.55-.75-.02-.03-.05-.09-.07-.12-.09-.14-.17-.27-.26-.43-.07-.14-.15-.29-.22-.43-.17-.34-.32-.68-.46-1.04-.27-.72-.46-1.47-.55-2.23-.02-.02-.02-.03-.02-.05v-.03c-.02-.1-.03-.24-.03-.34-.03-.31-.05-.6-.05-.9s.02-.6,.05-.9c0-.1,.02-.24,.03-.34v-.03s0-.03,.02-.05c.09-.77,.27-1.52,.55-2.23,.14-.36,.29-.7,.46-1.04,.07-.14,.15-.29,.22-.43,.09-.15,.17-.29,.26-.43,.02-.03,.05-.09,.07-.12,.17-.26,.36-.51,.55-.75,.19-.24,.39-.46,.6-.68,.2-.22,.43-.43,.65-.63,.19-.17,.39-.34,.6-.49,.32-.26,.68-.49,1.04-.7,.17-.1,.36-.2,.53-.29,.24-.14,.49-.24,.75-.36,.19-.07,.36-.14,.55-.19,.15-.05,.31-.12,.48-.15,.27-.09,.55-.15,.82-.2,.2-.05,.41-.09,.61-.1,.03,0,.07-.02,.1-.02,.19-.02,.39-.05,.58-.05,.24-.02,.49-.03,.73-.03s.49,.02,.73,.03c.19,0,.39,.03,.58,.05,.03,0,.07,.02,.1,.02,.2,.02,.41,.05,.61,.1,.27,.05,.55,.12,.82,.2,.17,.03,.32,.1,.48,.15,.19,.05,.36,.12,.55,.19,.26,.12,.51,.22,.75,.36,.17,.09,.36,.19,.53,.29,.36,.2,.72,.44,1.04,.7,.2,.15,.41,.32,.6,.49,.24,.19,.44,.41,.65,.63,.2,.22,.41,.44,.6,.68,.19,.24,.38,.49,.55,.75,.02,.03,.05,.09,.07,.12,.09,.14,.17,.27,.26,.43,.07,.14,.15,.29,.22,.43,.17,.34,.32,.68,.46,1.04,.27,.72,.46,1.47,.55,2.23,.02,.02,.02,.03,.02,.05v.03c.02,.1,.03,.22,.03,.34,.03,.31,.05,.6,.05,.9Z"/>
          <path class="cls-1" d="M163.01,16.63c0,.19,0,.36-.03,.53,0,.14-.02,.27-.05,.41-.02,.12-.03,.24-.07,.34,0,.03-.02,.05-.03,.09-.03,.1-.07,.22-.1,.32-.03,.1-.07,.2-.1,.31t-.02,.02c-.09,.2-.19,.39-.31,.58-.09,.17-.2,.36-.34,.51-.14,.19-.27,.36-.44,.51-.19,.19-.38,.34-.58,.51h-.02c-.14,.1-.27,.19-.41,.27-.2,.12-.41,.22-.61,.31-.15,.07-.31,.12-.48,.17-.09,.02-.15,.05-.24,.07-.12,.03-.24,.05-.38,.09-.02,0-.05,.02-.07,.02-.1,.02-.2,.03-.31,.03-.17,.03-.34,.03-.53,.03s-.36,0-.53-.03c-.12,0-.22-.02-.32-.05-.1-.02-.2-.02-.29-.05-.03,0-.07,0-.1-.02t-.03-.02s-.02,0-.03-.02c-.2-.05-.43-.12-.61-.2-.22-.09-.43-.19-.61-.29-.19-.1-.36-.22-.51-.34-.19-.14-.38-.31-.53-.46-.17-.17-.32-.34-.48-.53-.14-.17-.26-.36-.38-.56-.1-.19-.2-.39-.29-.61-.09-.2-.17-.43-.22-.65-.03-.12-.07-.26-.09-.38-.02-.02-.02-.05-.02-.07-.02-.1-.03-.2-.03-.31-.03-.17-.03-.34-.03-.53s0-.36,.03-.53c0-.1,.02-.2,.03-.31,0-.02,0-.05,.02-.07,.02-.12,.05-.26,.09-.38,.07-.26,.15-.49,.24-.72,.02-.05,.03-.09,.07-.14,.05-.12,.1-.24,.17-.34,.05-.12,.12-.22,.2-.34,.1-.15,.2-.31,.32-.44,.38-.44,.82-.84,1.31-1.13,.12-.09,.26-.15,.38-.2,.09-.05,.19-.09,.27-.12,.15-.07,.29-.12,.46-.17,.17-.05,.34-.1,.53-.14,.15-.03,.31-.05,.46-.07,.17-.02,.36-.03,.53-.03,.19,0,.36,.02,.53,.03,.15,.02,.31,.03,.44,.07,.05,0,.12,.02,.17,.03h.03c.12,.02,.24,.07,.34,.1,.17,.05,.32,.1,.48,.17,.1,.03,.2,.09,.31,.14,.02,0,.02,.02,.03,.02,.17,.09,.34,.17,.48,.29,.09,.05,.17,.1,.24,.17t.03,.02c.27,.19,.51,.41,.72,.67,.15,.17,.31,.36,.44,.55,.02,.03,.03,.07,.07,.1,.02,.03,.03,.05,.05,.09s.03,.05,.03,.09c.12,.15,.2,.34,.27,.51,.05,.1,.09,.19,.12,.29,.02,.03,.03,.09,.05,.12t.02,.03c.02,.09,.05,.2,.07,.29,.02,.02,.03,.05,.03,.07,.03,.1,.05,.22,.07,.34,.03,.14,.05,.27,.05,.41,.03,.17,.03,.34,.03,.53Z"/>
          <path class="cls-1" d="M95.27,135.24c0,2.83-2.29,5.12-5.12,5.12s-5.12-2.29-5.12-5.12c0-2.37,1.62-4.38,3.84-4.95,.41-.12,.84-.17,1.28-.17s.87,.05,1.28,.17c2.22,.56,3.84,2.58,3.84,4.95Z"/>
          <circle class="cls-11" cx="74.8" cy="80.66" r="5.12"/>
          <path class="cls-1" d="M310.21,184.59c0,.17-.02,.34-.03,.51,0,.14-.02,.27-.05,.39,0,.02-.02,.05-.02,.07v.03s-.02,.05-.02,.07c-.03,.15-.07,.29-.12,.44-.09,.29-.19,.56-.32,.82-.02,.03-.05,.09-.07,.12-.12,.22-.26,.44-.41,.63-.14,.19-.29,.36-.46,.53-.1,.1-.22,.22-.34,.32-.07,.07-.15,.12-.24,.19-.15,.1-.32,.22-.49,.31-.17,.1-.36,.19-.55,.27-.03,.02-.05,.02-.09,.03-.12,.05-.26,.1-.39,.14-.09,.03-.15,.05-.24,.07-.12,.03-.24,.05-.38,.09-.02,0-.05,.02-.07,.02-.1,.02-.2,.03-.31,.03-.17,.03-.34,.03-.53,.03s-.36,0-.53-.03c-.1,0-.2-.02-.31-.03-.02,0-.05-.02-.07-.02-.14-.03-.26-.05-.38-.09-.09-.02-.15-.03-.24-.07-.14-.03-.27-.09-.39-.14-.03-.02-.05-.02-.09-.03-.19-.09-.38-.17-.55-.27-.17-.09-.34-.2-.49-.31-.09-.07-.17-.12-.24-.19-.12-.1-.24-.22-.34-.32-.17-.17-.32-.34-.46-.53,0,0,0-.02-.02-.02-.02-.02-.02-.03-.03-.05-.05-.09-.12-.17-.17-.26-.07-.1-.14-.2-.19-.31-.02-.03-.05-.09-.07-.12-.14-.26-.24-.53-.32-.82-.05-.15-.09-.29-.12-.44,0-.02-.02-.05-.02-.07v-.03s-.02-.05-.02-.07c-.03-.12-.05-.26-.05-.39-.02-.17-.03-.34-.03-.51s.02-.36,.03-.53c.02-.15,.03-.31,.07-.44,0-.05,.02-.12,.03-.17v-.03c.02-.12,.07-.24,.1-.34,.05-.17,.1-.32,.17-.48,.03-.1,.09-.2,.14-.31,0-.02,.02-.02,.02-.03,.09-.17,.17-.34,.29-.48,.05-.09,.1-.17,.17-.24t.02-.03c.14-.19,.29-.36,.46-.53,.1-.1,.22-.22,.34-.32,.07-.07,.15-.12,.24-.19,.15-.1,.32-.22,.49-.31,.17-.1,.36-.19,.55-.27,.03-.02,.05-.02,.09-.03,.12-.05,.26-.1,.39-.14,.09-.03,.15-.05,.24-.07,.12-.03,.24-.05,.38-.09,.02,0,.05-.02,.07-.02,.1-.02,.2-.03,.31-.03,.17-.03,.34-.03,.53-.03s.36,0,.53,.03c.1,0,.2,.02,.31,.03,.02,0,.05,.02,.07,.02,.14,.03,.26,.05,.38,.09,.09,.02,.15,.03,.24,.07,.14,.03,.27,.09,.39,.14,.03,.02,.05,.02,.09,.03,.19,.09,.38,.17,.55,.27,.17,.09,.34,.2,.49,.31,.09,.07,.17,.12,.24,.19,.12,.1,.24,.22,.34,.32,.17,.17,.32,.34,.46,.53t.02,.03c.07,.07,.12,.15,.17,.24,.12,.14,.2,.31,.29,.48,0,.02,.02,.02,.02,.03,.05,.1,.1,.2,.14,.31,.07,.15,.12,.31,.17,.48,.07,.17,.12,.36,.15,.55,.02,.14,.03,.29,.05,.44,.02,.17,.03,.36,.03,.53Z"/>
          <circle class="cls-11" cx="274.38" cy="152.37" r="5.12"/>
          <path class="cls-1" d="M244.94,231.57c0,.22-.02,.44-.07,.67v.02c-.02,.1-.05,.22-.09,.32-.03,.09-.07,.19-.1,.27,0,.02-.02,.03-.02,.05-.07,.14-.12,.27-.2,.39-.09,.15-.17,.29-.27,.41t-.02,.03c-.09,.09-.15,.17-.24,.24-.61,.63-1.47,1.01-2.41,1.01-.07,0-.14,0-.2-.02h-.05s-.09,0-.14-.02c-.09,0-.17-.02-.26-.03-.05,0-.1-.02-.14-.03-.09,0-.15-.02-.22-.05-.12-.03-.22-.07-.32-.12-.1-.03-.19-.09-.27-.12-.02-.02-.05-.03-.07-.05-.17-.1-.34-.2-.49-.34-.09-.07-.17-.14-.24-.22-.1-.1-.2-.2-.29-.32-.09-.1-.17-.22-.24-.36-.09-.12-.14-.26-.2-.39,0-.02-.02-.03-.02-.05-.03-.09-.07-.19-.1-.27-.03-.1-.07-.22-.09-.32v-.02c-.05-.22-.07-.44-.07-.67s.02-.44,.07-.67v-.02c.02-.1,.05-.22,.09-.32,.03-.09,.07-.19,.1-.27,0-.02,.02-.03,.02-.05,.07-.14,.12-.27,.2-.39,.07-.14,.15-.26,.24-.36,.09-.12,.19-.22,.29-.32,.07-.09,.15-.15,.24-.22,.15-.14,.32-.24,.49-.34,.02-.02,.05-.03,.07-.05,.09-.03,.17-.09,.27-.12,.1-.05,.2-.09,.32-.12,.07-.03,.14-.05,.22-.05,.03-.02,.09-.03,.14-.03,.09-.02,.17-.03,.26-.03,.05-.02,.1-.02,.14-.02h.05c.07-.02,.14-.02,.2-.02s.14,0,.2,.02h.07s.09,0,.14,.02c.14,0,.27,.03,.41,.07,.12,.03,.26,.07,.38,.12,.12,.03,.24,.09,.36,.15,.12,.07,.24,.14,.36,.2,.29,.2,.53,.43,.75,.7,.1,.12,.19,.26,.27,.41,.09,.12,.14,.26,.2,.39,0,.02,.02,.03,.02,.05,.03,.09,.07,.19,.1,.27,.03,.1,.07,.22,.09,.32v.02c.05,.22,.07,.44,.07,.67Z"/>
          <circle class="cls-1" cx="74.8" cy="55.1" r="3.41"/>
          <path class="cls-11" d="M109.12,178.19c-.53-1.48-1.94-2.56-3.62-2.56-2.12,0-3.84,1.72-3.84,3.84s1.72,3.84,3.84,3.84c1.67,0,3.09-1.07,3.62-2.56,.14-.39,.22-.84,.22-1.28s-.09-.89-.22-1.28Zm-3.62,2.56c-.7,0-1.28-.58-1.28-1.28s.58-1.28,1.28-1.28,1.28,.56,1.28,1.28-.58,1.28-1.28,1.28Z"/>
          <path class="cls-11" d="M142.71,230.29c-.53-1.48-1.94-2.56-3.62-2.56-2.12,0-3.84,1.72-3.84,3.84s1.72,3.84,3.84,3.84c1.67,0,3.09-1.07,3.62-2.56,.14-.39,.22-.84,.22-1.28s-.09-.89-.22-1.28Zm-3.62,2.56c-.7,0-1.28-.58-1.28-1.28s.58-1.28,1.28-1.28,1.28,.58,1.28,1.28-.58,1.28-1.28,1.28Z"/>
          <path class="cls-11" d="M289.74,68.13c-2.12,0-3.84,1.72-3.84,3.84,0,1.67,1.07,3.09,2.56,3.62,.39,.14,.84,.22,1.28,.22s.89-.09,1.28-.22c1.48-.53,2.56-1.94,2.56-3.62,0-2.12-1.72-3.84-3.84-3.84Zm0,5.12c-.7,0-1.28-.58-1.28-1.28s.58-1.28,1.28-1.28,1.28,.56,1.28,1.28-.58,1.28-1.28,1.28Z"/>
          <path class="cls-11" d="M306.37,67.6c-.39-.14-.84-.22-1.28-.22s-.89,.09-1.28,.22c-1.48,.53-2.56,1.94-2.56,3.62,0,2.12,1.72,3.84,3.84,3.84s3.84-1.72,3.84-3.84c0-1.67-1.07-3.09-2.56-3.62Zm-1.28,4.9c-.7,0-1.28-.58-1.28-1.28s.58-1.28,1.28-1.28,1.28,.58,1.28,1.28-.58,1.28-1.28,1.28Z"/>
          <path class="cls-11" d="M321.72,139.3c-.39-.14-.84-.22-1.28-.22s-.89,.09-1.28,.22c-1.48,.53-2.56,1.94-2.56,3.62,0,2.12,1.72,3.84,3.84,3.84s3.84-1.72,3.84-3.84c0-1.67-1.07-3.09-2.56-3.62Zm-1.28,4.9c-.7,0-1.28-.56-1.28-1.28s.58-1.28,1.28-1.28,1.28,.58,1.28,1.28-.58,1.28-1.28,1.28Z"/>
          <path class="cls-11" d="M251.35,28.15c-1.67,0-3.09,1.07-3.62,2.56-.14,.39-.22,.84-.22,1.28s.09,.89,.22,1.28c.53,1.48,1.94,2.56,3.62,2.56,2.12,0,3.84-1.72,3.84-3.84s-1.72-3.84-3.84-3.84Zm0,5.12c-.7,0-1.28-.58-1.28-1.28s.58-1.28,1.28-1.28,1.28,.58,1.28,1.28-.58,1.28-1.28,1.28Z"/>
          <path class="cls-11" d="M262.65,214.94c-.53-1.48-1.94-2.56-3.62-2.56-2.12,0-3.84,1.72-3.84,3.84s1.72,3.84,3.84,3.84c1.67,0,3.09-1.07,3.62-2.56,.14-.39,.22-.84,.22-1.28s-.09-.89-.22-1.28Zm-3.62,2.56c-.7,0-1.28-.58-1.28-1.28s.58-1.28,1.28-1.28,1.28,.58,1.28,1.28-.58,1.28-1.28,1.28Z"/>
          <path class="cls-1" d="M193.08,31.98c0,.46-.09,.92-.27,1.33-.03,.1-.09,.2-.14,.29-.05,.1-.1,.2-.17,.29-.12,.19-.27,.36-.43,.49-.61,.63-1.47,1.01-2.41,1.01-1.88,0-3.41-1.54-3.41-3.41s1.54-3.41,3.41-3.41c.94,0,1.79,.38,2.41,1.01,.15,.14,.31,.31,.43,.49,.07,.09,.12,.19,.17,.29,.05,.09,.1,.19,.14,.29,.19,.41,.27,.87,.27,1.33Z"/>
          <path class="cls-11" d="M179.73,42.97c-.71,0-1.28-.57-1.28-1.28v-8.43h-11.05c-.71,0-1.28-.57-1.28-1.28s.57-1.28,1.28-1.28h12.33c.71,0,1.28,.57,1.28,1.28v9.71c0,.71-.57,1.28-1.28,1.28Z"/>
          <path class="cls-11" d="M120.86,180.75h-12.79c-.71,0-1.28-.57-1.28-1.28s.57-1.28,1.28-1.28h12.79c.71,0,1.28,.57,1.28,1.28s-.57,1.28-1.28,1.28Z"/>
          <path class="cls-11" d="M115.69,215.31c0-.12-.02-.24-.03-.34v-.03c-.07-.58-.19-1.14-.36-1.69-.09-.26-.17-.53-.27-.78-.07-.15-.12-.31-.19-.44,0-.02-.02-.03-.02-.05-.03-.05-.05-.1-.07-.15-.03-.09-.07-.15-.12-.22-.1-.19-.2-.39-.32-.58-.17-.31-.36-.6-.58-.89-.03-.05-.07-.1-.1-.14-.02-.03-.05-.05-.07-.09l-.02-.02c-.09-.1-.15-.2-.24-.29-.36-.43-.75-.82-1.18-1.18-.1-.09-.19-.17-.29-.24l-.02-.02s-.05-.05-.09-.07c-.03-.03-.09-.07-.14-.1-.29-.22-.58-.41-.89-.58-.19-.12-.39-.22-.58-.32-.07-.05-.14-.09-.22-.12-.05-.02-.1-.03-.15-.07-.02,0-.03-.02-.05-.02-.14-.07-.29-.12-.44-.19-.26-.1-.53-.19-.78-.27-.55-.17-1.11-.29-1.69-.36h-.03c-.1-.02-.24-.03-.34-.03-.31-.03-.6-.05-.9-.05s-.6,.02-.9,.05c-.12,0-.24,.02-.34,.03h-.03s-.03,0-.05,.02c-.77,.09-1.52,.27-2.23,.55-.36,.14-.7,.29-1.04,.46-.14,.07-.29,.15-.43,.22-.15,.09-.29,.17-.43,.26-.03,.02-.09,.05-.12,.07-.26,.17-.51,.36-.75,.55-.24,.19-.46,.39-.68,.6-.22,.2-.43,.43-.63,.65-.17,.19-.34,.39-.49,.6-.26,.32-.49,.68-.7,1.04-.1,.17-.2,.36-.29,.53-.14,.24-.24,.49-.36,.75-.07,.19-.14,.36-.19,.55-.05,.15-.12,.31-.15,.48-.09,.27-.15,.55-.2,.82-.05,.2-.09,.41-.1,.61,0,.03-.02,.07-.02,.1-.02,.19-.05,.39-.05,.58-.02,.24-.03,.49-.03,.73,0,5.65,4.59,10.24,10.24,10.24,.24,0,.49-.02,.73-.03,.19,0,.39-.03,.58-.05,.03,0,.07-.02,.1-.02,.2-.02,.41-.05,.61-.1,.27-.05,.55-.12,.82-.2,.17-.03,.32-.1,.48-.15,.19-.05,.36-.12,.55-.19,.26-.12,.51-.22,.75-.36,.17-.09,.36-.19,.53-.29,.36-.2,.72-.44,1.04-.7,.2-.15,.41-.32,.6-.49,.24-.19,.44-.41,.65-.63s.41-.44,.6-.68c.19-.24,.38-.49,.55-.75,.02-.03,.05-.09,.07-.12,.09-.14,.17-.27,.26-.43,.07-.14,.15-.29,.22-.43,.17-.34,.32-.68,.46-1.04,.27-.72,.46-1.47,.55-2.23,.02-.02,.02-.03,.02-.05v-.03c.02-.1,.03-.22,.03-.34,.03-.31,.05-.6,.05-.9s-.02-.6-.05-.9Zm-9.33,6.87c0,.48-.38,.85-.85,.85s-.85-.38-.85-.85v-5.12h-5.12c-.48,0-.85-.38-.85-.85s.38-.85,.85-.85h5.12v-5.12c0-.48,.38-.85,.85-.85s.85,.38,.85,.85v5.12h5.12c.48,0,.85,.38,.85,.85s-.38,.85-.85,.85h-5.12v5.12Z"/>
          <path class="cls-1" d="M274.38,31.98c-.31,0-.61,.02-.92,.03-.22,0-.44,.02-.65,.05-.24,.02-.48,.05-.7,.09s-.46,.07-.68,.12c-.22,.03-.46,.09-.7,.15-.14,.03-.26,.05-.38,.09-.03,.02-.09,.02-.12,.03-.05,.02-.12,.03-.17,.05-.09,.02-.17,.05-.26,.09-.24,.07-.48,.15-.7,.24-.24,.09-.48,.17-.7,.27-.24,.09-.46,.19-.68,.31-.22,.1-.44,.22-.67,.34s-.44,.24-.65,.38c-.22,.12-.43,.26-.61,.39-.2,.14-.41,.27-.6,.43-.2,.14-.39,.29-.58,.46-.38,.29-.73,.63-1.09,.99-.19,.19-.38,.38-.56,.58-.15,.15-.29,.32-.43,.51-.17,.19-.32,.38-.46,.56v.02c-.29,.38-.55,.75-.78,1.14-.27,.44-.53,.9-.75,1.38-.12,.22-.22,.44-.31,.68-.19,.46-.36,.92-.51,1.4-.12,.38-.22,.75-.31,1.13-.1,.46-.19,.96-.26,1.43-.02,.24-.05,.49-.07,.73-.03,.2-.05,.41-.05,.63-.02,.22-.02,.44-.02,.65s0,.43,.02,.65c0,.22,.02,.43,.05,.63,.02,.24,.05,.49,.07,.73,.07,.48,.15,.97,.26,1.43,.09,.38,.19,.75,.31,1.13,.15,.48,.32,.94,.51,1.4,.09,.24,.19,.46,.31,.68,.22,.48,.48,.94,.75,1.38,.24,.39,.49,.77,.78,1.14v.02c.14,.19,.29,.38,.46,.56,.14,.19,.27,.36,.43,.51,.19,.2,.38,.39,.56,.58,.36,.36,.72,.7,1.09,.99,.19,.17,.38,.32,.58,.46,.19,.15,.39,.29,.6,.43,.19,.14,.39,.27,.61,.39,.2,.14,.43,.26,.65,.38s.44,.24,.67,.34c.22,.12,.44,.22,.68,.31,.22,.1,.46,.19,.7,.27,.22,.09,.46,.17,.7,.24,.09,.03,.17,.07,.26,.09,.05,.02,.12,.03,.17,.05,.03,.02,.09,.02,.12,.03,.12,.03,.24,.05,.38,.09,.24,.07,.48,.12,.7,.15,.22,.05,.46,.09,.68,.12,.22,.03,.46,.07,.7,.09,.2,.03,.43,.05,.65,.05,.31,.02,.61,.03,.92,.03,8.48,0,15.35-6.87,15.35-15.35s-6.87-15.35-15.35-15.35Zm8.96,16.63h-7.68v7.68c0,.7-.58,1.28-1.28,1.28s-1.28-.58-1.28-1.28v-7.68h-7.68c-.7,0-1.28-.58-1.28-1.28s.58-1.28,1.28-1.28h7.68v-7.68c0-.7,.58-1.28,1.28-1.28s1.28,.58,1.28,1.28v7.68h7.68c.7,0,1.28,.58,1.28,1.28s-.58,1.28-1.28,1.28Z"/>
        </g>
        <g>
          <path class="cls-1" d="M189.6,147.01v4.44c0,13.03-2.17,31.29-26.27,31.29-21.11,0-25.58-13.19-25.58-30.58v-57.46c0-17.58,7.98-29.25,25.88-29.25,21.37,0,25.46,14.17,25.46,29.96v5.11h-17.62v-7.17c0-7.57-1.77-11.89-7.88-11.89s-7.94,4.15-7.94,11.95v60.25c0,7.44,1.48,13.21,8.15,13.21s8.03-5.02,8.03-13.5v-6.37h17.77Z"/>
          <path class="cls-1" d="M217.11,150.6l-3.99,30.48h-17.88l18.36-113.96h24.83l19.06,113.96h-18.37l-4.48-30.48h-17.53Zm15.45-16.17c-2.61-19.35-5.1-37.72-6.4-50.61h-.64c-.49,9.39-3.92,33.79-6.19,50.61h13.23Z"/>
        </g>
      </g>
      <g>
        <g>
          <rect class="cls-11" y="286.19" width="70" height="70" rx="6.34" ry="6.34"/>
          <text class="cls-5" transform="translate(8.55 346.41)"><tspan class="cls-6" x="0" y="0">P</tspan><tspan x="26.49" y="0">a</tspan></text>
        </g>
        <g>
          <text class="cls-2" transform="translate(92.14 320.9)"><tspan class="cls-10" x="0" y="0">P</tspan><tspan class="cls-7" x="30.38" y="0">r</tspan><tspan class="cls-13" x="48.69" y="0">o</tspan><tspan x="76.46" y="0">g</tspan><tspan class="cls-15" x="104.89" y="0">r</tspan><tspan x="122.82" y="0">amming</tspan></text>
          <text class="cls-3" transform="translate(183.2 355.89)"><tspan class="cls-12" x="0" y="0">A</tspan><tspan class="cls-14" x="17.08" y="0">C</tspan><tspan class="cls-8" x="34.5" y="0">A</tspan><tspan class="cls-9" x="51.59" y="0">D</tspan><tspan class="cls-4" x="69.7" y="0">E</tspan><tspan class="cls-9" x="85.65" y="0">MY</tspan></text>
        </g>
      </g>
    </g>
  </g>
</svg>